<svg width="16" height="16" viewBox="0 0 16 16" fill="none" xmlns="http://www.w3.org/2000/svg">
<g clip-path="url(#clip0_16340_3663)">
<path d="M12 13.3333C12 12.2725 11.5786 11.2551 10.8284 10.5049C10.0783 9.75477 9.06087 9.33334 8 9.33334C6.93913 9.33334 5.92172 9.75477 5.17157 10.5049C4.42143 11.2551 4 12.2725 4 13.3333" stroke="white" stroke-linecap="round" stroke-linejoin="round"/>
<path d="M8.00004 9.33333C9.4728 9.33333 10.6667 8.13943 10.6667 6.66667C10.6667 5.19391 9.4728 4 8.00004 4C6.52728 4 5.33337 5.19391 5.33337 6.66667C5.33337 8.13943 6.52728 9.33333 8.00004 9.33333Z" stroke="white" stroke-linecap="round" stroke-linejoin="round"/>
<path d="M8.00004 14.6667C11.6819 14.6667 14.6667 11.6819 14.6667 8.00001C14.6667 4.31811 11.6819 1.33334 8.00004 1.33334C4.31814 1.33334 1.33337 4.31811 1.33337 8.00001C1.33337 11.6819 4.31814 14.6667 8.00004 14.6667Z" stroke="white" stroke-linecap="round" stroke-linejoin="round"/>
</g>
<defs>
<clipPath id="clip0_16340_3663">
<rect width="16" height="16" fill="white"/>
</clipPath>
</defs>
</svg>
